<svg id="Layer_1" data-name="Layer 1" xmlns="http://www.w3.org/2000/svg" xmlns:xlink="http://www.w3.org/1999/xlink" viewBox="0 0 26 22"><defs><style>.cls-1{fill:none;}.cls-2{clip-path:url(#clip-path);}.cls-3{clip-path:url(#clip-path-2);}.cls-4{fill:#174b5e;}</style><clipPath id="clip-path"><path class="cls-1" d="M24.54,8.92H7.18l5.47-5.58a1.47,1.47,0,0,0,0-2.06L11.8.42a1.41,1.41,0,0,0-2,0L.41,10A1.5,1.5,0,0,0,.41,12l9.38,9.55a1.41,1.41,0,0,0,2,0l.85-.87a1.45,1.45,0,0,0,.42-1,1.42,1.42,0,0,0-.42-1L7.12,13.07H24.56A1.49,1.49,0,0,0,26,11.58V10.35A1.46,1.46,0,0,0,24.54,8.92Z"/></clipPath><clipPath id="clip-path-2"><rect class="cls-1" x="-28.5" y="-43" width="414" height="896"/></clipPath></defs><g class="cls-2"><g class="cls-3"><rect class="cls-4" x="-5" y="-5" width="36" height="32"/></g></g></svg>