<svg id="Layer_1" data-name="Layer 1" xmlns="http://www.w3.org/2000/svg" xmlns:xlink="http://www.w3.org/1999/xlink" viewBox="0 0 25.44 35.5"><defs><style>.cls-1{fill:none;}.cls-2{fill:#c9d5d9;}.cls-3{clip-path:url(#clip-path);}</style><clipPath id="clip-path"><path class="cls-1" d="M71.54,16.19H54.18l5.47-5.58a1.44,1.44,0,0,0,.41-1,1.46,1.46,0,0,0-.41-1l-.85-.87a1.42,1.42,0,0,0-1-.42,1.4,1.4,0,0,0-1,.42l-9.38,9.55a1.5,1.5,0,0,0,0,2.06l9.38,9.55a1.4,1.4,0,0,0,1,.42,1.42,1.42,0,0,0,1-.42l.85-.87a1.46,1.46,0,0,0,0-2l-5.53-5.61H71.56A1.49,1.49,0,0,0,73,18.85V17.63A1.46,1.46,0,0,0,71.54,16.19Z"/></clipPath></defs><path class="cls-2" d="M21.12,13.47,19.3,22.83h2.88a2.29,2.29,0,0,1,2.3,2.31,2.1,2.1,0,0,1-.67,1.56,2.26,2.26,0,0,1-1.63.64h-3.8l-1.24,6.44A2,2,0,0,1,16.39,35a2.27,2.27,0,0,1-1.46.48,2.35,2.35,0,0,1-1.73-.65,2.18,2.18,0,0,1-.67-1.65,2.32,2.32,0,0,1,.05-.62l1-5.24H8.4L7.1,33.78A2,2,0,0,1,6.36,35,2.14,2.14,0,0,1,5,35.5a2.34,2.34,0,0,1-1.73-.67,2.37,2.37,0,0,1-.67-1.73,2.27,2.27,0,0,1,.05-.52l1-5.24H2.3a2.21,2.21,0,0,1-1.63-.67A2.21,2.21,0,0,1,0,25a2.07,2.07,0,0,1,.67-1.56,2.27,2.27,0,0,1,1.63-.65H4.56l1.82-9.36H3.26a2.21,2.21,0,0,1-1.63-.67A2.21,2.21,0,0,1,1,11.17a2.07,2.07,0,0,1,.67-1.56A2.27,2.27,0,0,1,3.26,9h4L8.5,2.77a2,2,0,0,1,.72-1.25A2.16,2.16,0,0,1,10.66,1a2.31,2.31,0,0,1,2.4,2.35A2.69,2.69,0,0,1,13,4L12,9h5.18l1.2-6.19a2.06,2.06,0,0,1,.75-1.25A2.27,2.27,0,0,1,20.59,1a2.39,2.39,0,0,1,1.75.67A2.29,2.29,0,0,1,23,3.44,2.44,2.44,0,0,1,23,4L22,9h1.11a2.29,2.29,0,0,1,2.3,2.3,2.07,2.07,0,0,1-.67,1.56,2.23,2.23,0,0,1-1.63.65Zm-4.8,0H11.14L9.26,22.83H14.5Z"/></svg>