<svg id="Layer_1" data-name="Layer 1" xmlns="http://www.w3.org/2000/svg" xmlns:xlink="http://www.w3.org/1999/xlink" viewBox="0 0 54.61 54.61"><defs><style>.cls-1,.cls-6{fill:none;}.cls-2{clip-path:url(#clip-path);}.cls-3{clip-path:url(#clip-path-2);}.cls-4{isolation:isolate;}.cls-5{clip-path:url(#clip-path-3);}.cls-6{stroke:#3bb2b4;stroke-miterlimit:10;stroke-width:2px;}.cls-7{clip-path:url(#clip-path-5);}.cls-8{fill:#3bb2b4;}</style><clipPath id="clip-path"><circle class="cls-1" cx="27.3" cy="27.3" r="27"/></clipPath><clipPath id="clip-path-2"><rect class="cls-1" x="0.3" y="0.3" width="54" height="54"/></clipPath><clipPath id="clip-path-3"><rect class="cls-1" x="-9.7" y="-9.7" width="74" height="74"/></clipPath><clipPath id="clip-path-5"><path class="cls-1" d="M27.3,12.3a3,3,0,1,1-3,3A3,3,0,0,1,27.3,12.3Zm6.44,8.41-3.52-1.86a4.37,4.37,0,0,0,1.93-3.57A4.68,4.68,0,0,0,27.3,10.8a4.68,4.68,0,0,0-4.85,4.48,4.35,4.35,0,0,0,1.94,3.57l-3.53,1.86a1.94,1.94,0,0,0-1.06,1.73l0,1a.86.86,0,0,0,1.71,0l0-1.05a.39.39,0,0,1,.2-.33L26,19.8a.49.49,0,0,1,.2-.05h2.18a.43.43,0,0,1,.22.06l0,0,4.26,2.24a.37.37,0,0,1,.2.36s0,0,0,.06l-.3,11.93a.39.39,0,0,1-.27.34h0l-2.43.84a.78.78,0,0,0-.56.73v5.53a.39.39,0,0,1-.4.37H25.5a.38.38,0,0,1-.4-.37c0-1.59,0-3.35,0-5.52a.79.79,0,0,0-.55-.74l-2.47-.85a.36.36,0,0,1-.26-.34h0l-.12-4.67a.85.85,0,0,0-1.7,0l.12,4.66a2,2,0,0,0,1.37,1.8l1.91.65c0,1.93,0,3.52,0,5a2,2,0,0,0,2.11,1.94H29.1a2,2,0,0,0,2.1-1.94v-5l1.88-.64a2,2,0,0,0,1.41-1.79l.3-11.89A1.92,1.92,0,0,0,33.74,20.71Z"/></clipPath></defs><g class="cls-2"><g class="cls-3"><g class="cls-4"><g class="cls-5"><g class="cls-3"><circle class="cls-6" cx="27.3" cy="27.3" r="27"/></g></g></g></g></g><g class="cls-7"><g class="cls-3"><rect class="cls-8" x="14.8" y="5.8" width="25" height="43"/></g></g></svg>