<svg id="Layer_1" xmlns="http://www.w3.org/2000/svg" xmlns:xlink="http://www.w3.org/1999/xlink" viewBox="0 0 42 56.97"><defs><style>.cls-1,.cls-2{fill:none;}.cls-1{clip-rule:evenodd;}.cls-3{clip-path:url(#clip-path);}.cls-4{clip-path:url(#clip-path-2);}.cls-5{fill:#FFC000
    ;}</style><clipPath id="clip-path"><path class="cls-1" d="M21,1.48C9.55,1.48,0,10,0,21A18.43,18.43,0,0,0,3.93,32.29L19.4,54.66a2,2,0,0,0,3.2,0L38.13,32.22A18.4,18.4,0,0,0,42,21C42,10.22,32.58,1.48,21,1.48Zm-.5,10A9.52,9.52,0,0,1,29.28,17a8.64,8.64,0,0,1-2.07,9.8,9.73,9.73,0,0,1-6.72,2.64,9.89,9.89,0,0,1-3.62-.68A9,9,0,0,1,11,20.48,9.28,9.28,0,0,1,20.5,11.48Z"/></clipPath><clipPath id="clip-path-2"><rect class="cls-2" y="1.48" width="42" height="54"/></clipPath></defs><g class="cls-3"><g class="cls-4"><rect class="cls-5" x="-5" y="-3.52" width="52" height="64"/></g></g></svg>
