<svg id="Layer_1" data-name="Layer 1" xmlns="http://www.w3.org/2000/svg" xmlns:xlink="http://www.w3.org/1999/xlink" viewBox="0 0 54.55 54.55"><defs><style>.cls-1{fill:none;}.cls-2{clip-path:url(#clip-path);}.cls-3{clip-path:url(#clip-path-2);}.cls-4{fill:#3bb2b4;}.cls-5{clip-path:url(#clip-path-3);}.cls-6{fill:#fffcfc;}</style><clipPath id="clip-path"><circle class="cls-1" cx="27.27" cy="27.27" r="27"/></clipPath><clipPath id="clip-path-2"><rect class="cls-1" x="-0.73" y="0.27" width="55" height="54"/></clipPath><clipPath id="clip-path-3"><path class="cls-1" d="M28,10.85a2.9,2.9,0,1,1-2.9,2.9A2.91,2.91,0,0,1,28,10.85Zm8.2,21.09L36,31a.79.79,0,0,0-1.53.37l.22.92a.36.36,0,0,1-.25.44h0l-3.81,1.32a.78.78,0,0,0-.53.74v5.51a.37.37,0,0,1-.37.37H26.37a.35.35,0,0,1-.28-.12.37.37,0,0,1-.1-.28.2.2,0,0,0,0-.07V34.82a.8.8,0,0,0-.53-.74l-3.87-1.34a.36.36,0,0,1-.23-.43l2.9-12a.35.35,0,0,1,.14-.21l2.4-1.79a.37.37,0,0,1,.22-.08h2a.41.41,0,0,1,.23.08l0,0,2.36,1.77a.31.31,0,0,1,.14.23s0,0,0,.06L33,25.28a.78.78,0,0,0,.95.58.79.79,0,0,0,.58-.95L33.34,20a1.9,1.9,0,0,0-.75-1.2l-2-1.46a4.48,4.48,0,1,0-5.23,0l-1.95,1.46a2,2,0,0,0-.73,1.1l-2.9,12a1.93,1.93,0,0,0,1.25,2.29l3.34,1.15V40.2a1.94,1.94,0,0,0,.51,1.45,1.91,1.91,0,0,0,1.43.62h3.31a1.94,1.94,0,0,0,1.94-1.94V35.38l3.27-1.13A1.94,1.94,0,0,0,36.22,31.94Z"/></clipPath></defs><g class="cls-2"><g class="cls-3"><rect class="cls-4" x="-4.73" y="-4.73" width="64" height="64"/></g></g><g class="cls-5"><g class="cls-3"><rect class="cls-6" x="14.77" y="4.27" width="26.5" height="43"/></g></g></svg>