<svg id="Layer_1" data-name="Layer 1" xmlns="http://www.w3.org/2000/svg" xmlns:xlink="http://www.w3.org/1999/xlink" viewBox="0 0 55.8 55.8"><defs><style>.cls-1,.cls-7{fill:none;}.cls-2{clip-path:url(#clip-path);}.cls-3{clip-path:url(#clip-path-2);}.cls-4{isolation:isolate;}.cls-5{clip-path:url(#clip-path-3);}.cls-6{clip-path:url(#clip-path-4);}.cls-7{stroke:#3bb2b4;stroke-miterlimit:10;stroke-width:2px;}.cls-8{clip-path:url(#clip-path-5);}.cls-9{fill:#3bb2b4;}</style><clipPath id="clip-path"><circle class="cls-1" cx="27.9" cy="27.9" r="27"/></clipPath><clipPath id="clip-path-2"><rect class="cls-1" x="0.9" y="0.9" width="55" height="54"/></clipPath><clipPath id="clip-path-3"><rect class="cls-1" x="-9.1" y="-9.1" width="74" height="74"/></clipPath><clipPath id="clip-path-4"><rect class="cls-1" x="0.9" y="0.9" width="54" height="54"/></clipPath><clipPath id="clip-path-5"><path class="cls-1" d="M28.65,11.47a2.9,2.9,0,1,1-2.9,2.9A2.9,2.9,0,0,1,28.65,11.47Zm8.19,21.1-.22-.92a.79.79,0,1,0-1.53.37l.23.92a.38.38,0,0,1-.26.44h0l-3.82,1.32a.78.78,0,0,0-.52.74l0,5.5a.36.36,0,0,1-.36.37H27a.38.38,0,0,1-.27-.12.37.37,0,0,1-.1-.29V35.45a.77.77,0,0,0-.53-.74l-3.86-1.34a.37.37,0,0,1-.24-.43l2.91-12a.33.33,0,0,1,.13-.21l2.4-1.79a.37.37,0,0,1,.22-.07h2a.38.38,0,0,1,.24.08l0,0,2.37,1.76a.42.42,0,0,1,.14.24s0,0,0,.05l1.19,4.91a.79.79,0,0,0,1,.58.78.78,0,0,0,.57-.95L34,20.66a1.93,1.93,0,0,0-.75-1.21L31.27,18A4.48,4.48,0,1,0,26,18l-2,1.45a1.91,1.91,0,0,0-.72,1.1l-2.91,12a1.94,1.94,0,0,0,1.26,2.29L25,36v4.82A1.95,1.95,0,0,0,27,42.9h3.32A1.94,1.94,0,0,0,32.25,41V36l3.27-1.13A1.93,1.93,0,0,0,36.84,32.57Z"/></clipPath></defs><g class="cls-2"><g class="cls-3"><g class="cls-4"><g class="cls-5"><g class="cls-6"><circle class="cls-7" cx="27.9" cy="27.9" r="27"/></g></g></g></g></g><g class="cls-8"><g class="cls-3"><rect class="cls-9" x="15.4" y="4.9" width="26.5" height="43"/></g></g></svg>